<svg xmlns="http://www.w3.org/2000/svg" viewBox="0 -0.5 16 16" shape-rendering="crispEdges">
<metadata>MS Agent Scouting e-Sports Talent</metadata>
<path stroke="#000000" d="M4 0h7M3 1h1M8 1h1M11 1h1M3 2h1M9 2h1M11 2h1M3 3h9M0 4h5M9 4h1M11 4h2M2 5h13M3 6h10M2 7h1M5 7h3M10 7h3M2 8h1M10 8h1M12 8h1M3 9h1M8 9h2M12 9h1M3 10h1M12 10h1M2 11h2M7 11h3M12 11h2M0 12h2M4 12h1M11 12h1M14 12h2M1 13h1M5 13h1M8 13h1M11 13h1M14 13h1M2 14h1M5 14h6M13 14h1M1 15h1M5 15h1M7 15h3M11 15h1M14 15h1" />
<path stroke="#c1c1c1" d="M4 1h4M9 1h2M4 2h5M10 2h1" />
<path stroke="#818181" d="M5 4h4M10 4h1M2 12h2M12 12h2M0 13h1M2 13h3M12 13h2M15 13h1M0 14h2M3 14h2M11 14h2M14 14h2M0 15h1M2 15h3M12 15h2M15 15h1" />
<path stroke="#ffffff" d="M3 7h2M8 7h2M3 8h7M11 8h1M4 9h4M10 9h2M4 10h8M4 11h3M10 11h2M5 12h6M6 13h2M9 13h2M6 15h1M10 15h1" />
</svg>